# xmcd
#
# Track frame offsets:
#	150
#	16182
#	37811
#	52202
#	63911
#	72608
#	90852
#	113272
#	132515
#	142828
#
# Disc length: 2118 seconds
#
# Revision: 1
# Processed by: cddbd v1.5.2PL0 Copyright (c) Steve Scherf et al.
# Submitted via: audiograbber 1.83.01
#
DISCID=7c08440a
DTITLE=Hobbs, Daniel Marion - I Believe
DYEAR=2008
DGENRE=Gospel
TTITLE0=Amazing Grace
TTITLE1=I Believe
TTITLE2=I Must Tell Jesus
TTITLE3=Jesus on the Mainline
TTITLE4=Leaning on the Everlasting Arms
TTITLE5=Long Black Train
TTITLE6=Old Rugged Cross, The
TTITLE7=Peace in the Valley
TTITLE8=What a Friend We Have in Jesus
TTITLE9=It's No Secret
EXTD=Country Gospel
EXTT0=
EXTT1=
EXTT2=
EXTT3=
EXTT4=
EXTT5=
EXTT6=
EXTT7=
EXTT8=
EXTT9=
PLAYORDER=
